<svg width="24" height="24" viewBox="0 0 24 24" fill="none" xmlns="http://www.w3.org/2000/svg">
<path d="M18.6667 6.66667C18.1405 6.65317 17.6396 6.43812 17.2674 6.06593C16.8952 5.69375 16.6802 5.19285 16.6667 4.66667C16.6667 4.13623 16.8774 3.62753 17.2525 3.25245C17.6275 2.87738 18.1362 2.66667 18.6667 2.66667C19.1971 2.66667 19.7058 2.87738 20.0809 3.25245C20.456 3.62753 20.6667 4.13623 20.6667 4.66667C20.6532 5.19285 20.4381 5.69375 20.0659 6.06593C19.6938 6.43812 19.1928 6.65317 18.6667 6.66667ZM16.6667 0C14.7271 0.017396 12.872 0.795598 11.5004 2.16711C10.1289 3.53863 9.35073 5.3938 9.33333 7.33333C9.37414 8.63017 9.69239 9.9032 10.2667 11.0667L0 21.3333V24H5.33333V21.3333H8V18.6667H10.6667L14.9333 14.4C15.4992 14.5538 16.0807 14.6432 16.6667 14.6667C18.6062 14.6493 20.4614 13.8711 21.8329 12.4996C23.2044 11.128 23.9826 9.27287 24 7.33333C23.9826 5.3938 23.2044 3.53863 21.8329 2.16711C20.4614 0.795598 18.6062 0.017396 16.6667 0Z" fill="#57CADD"/>
</svg>
